<svg width="32" height="32" viewBox="0 0 32 32" fill="none" xmlns="http://www.w3.org/2000/svg">
  <defs>
    <linearGradient id="overleaf-gradient" x1="0%" y1="0%" x2="100%" y2="100%">
      <stop offset="0%" stop-color="#4ade80" />
      <stop offset="50%" stop-color="#22c55e" />
      <stop offset="100%" stop-color="#16a34a" />
    </linearGradient>
  </defs>
  
  <!-- Main leaf shape -->
  <path
    d="M6 26C6 26 8 24 12 20C16 16 20 12 22 8C24 4 24 2 22 2C20 2 16 6 12 12C8 18 6 22 6 26Z"
    fill="url(#overleaf-gradient)"
  />
  
  <!-- Secondary leaf overlay -->
  <path
    d="M10 30C10 30 12 28 16 24C20 20 24 16 26 12C28 8 28 6 26 6C24 6 20 10 16 16C12 22 10 26 10 30Z"
    fill="#22c55e"
    opacity="0.8"
  />
  
  <!-- Document lines -->
  <path
    d="M8 14L14 14M8 18L16 18M8 22L12 22"
    stroke="white"
    stroke-width="1.5"
    stroke-linecap="round"
    opacity="0.6"
  />
</svg>